<?xml version="1.0" standalone="no"?>
<!DOCTYPE svg PUBLIC "-//W3C//DTD SVG 20010904//EN"
 "http://www.w3.org/TR/2001/REC-SVG-20010904/DTD/svg10.dtd">
<svg version="1.0" xmlns="http://www.w3.org/2000/svg"
 width="700.000000pt" height="700.000000pt" viewBox="0 0 700.000000 700.000000"
 preserveAspectRatio="xMidYMid meet">
<metadata>
Created by potrace 1.11, written by Peter Selinger 2001-2013
</metadata>
<g transform="translate(0.000000,700.000000) scale(0.100000,-0.100000)"
fill="#000000" stroke="none">
<path d="M2017 4524 c-1 -1 -36 -5 -77 -9 -135 -13 -196 -22 -280 -41 -36 -9
-76 -18 -89 -20 -13 -3 -78 -23 -144 -45 -435 -146 -749 -436 -806 -746 -6
-31 -14 -60 -19 -64 -7 -6 -43 -27 -229 -126 -46 -25 -83 -48 -83 -51 0 -4 74
-6 163 -5 l164 3 17 -63 c19 -69 81 -189 129 -251 124 -160 315 -297 545 -393
143 -59 343 -115 457 -129 28 -4 53 -8 56 -10 15 -9 199 -18 339 -18 177 1
262 8 410 34 214 39 359 83 531 163 211 97 383 229 498 380 87 116 134 231
146 362 3 38 8 71 10 75 2 4 6 20 9 36 8 41 43 147 70 209 71 160 210 307 363
384 40 20 176 69 218 77 139 30 231 39 395 38 243 -1 384 -31 530 -111 55 -31
173 -113 190 -133 13 -14 157 -130 163 -130 7 0 98 60 107 71 11 13 178 89
208 95 31 6 32 8 16 25 -31 35 -188 136 -291 188 -157 80 -383 149 -572 177
-25 4 -55 8 -66 10 -118 22 -504 21 -623 -1 -9 -1 -37 -6 -62 -10 -25 -4 -54
-9 -65 -11 -11 -2 -33 -7 -50 -9 -63 -12 -254 -69 -340 -102 -265 -104 -484
-258 -615 -431 -97 -130 -138 -248 -145 -423 -10 -221 -68 -371 -190 -495
-134 -135 -345 -223 -602 -251 -140 -16 -468 -9 -563 12 -14 3 -37 7 -52 10
-15 3 -38 9 -52 15 -15 5 -26 7 -26 5 0 -7 -95 30 -160 63 -185 90 -310 243
-361 440 -10 41 -19 81 -19 87 0 9 82 12 333 13 l334 0 114 76 c63 42 146 98
186 124 40 26 72 50 73 53 0 3 -234 6 -520 5 -495 -1 -520 0 -520 17 0 41 25
118 68 207 71 151 206 272 372 338 159 62 304 82 550 77 143 -3 183 -6 280
-20 195 -28 340 -100 483 -237 l66 -65 10 29 c20 56 93 154 141 188 27 19 49
37 50 40 0 8 -120 86 -175 113 -110 54 -323 116 -450 132 -27 3 -61 8 -75 10
-71 13 -463 28 -473 19z"/>
<path d="M5203 3645 c-32 -17 -103 -55 -158 -85 -260 -139 -261 -140 -235
-140 14 -1 235 -1 493 -2 257 0 469 -4 472 -7 2 -4 -5 -47 -15 -96 -56 -254
-225 -422 -505 -500 -152 -42 -266 -53 -520 -49 -240 3 -251 4 -379 30 -172
34 -285 102 -392 238 l-30 39 -53 -56 c-29 -31 -84 -82 -123 -114 l-69 -58 28
-22 c77 -62 337 -171 498 -209 80 -19 222 -41 327 -51 148 -13 477 -8 573 11
11 2 43 7 70 10 74 11 237 53 340 88 291 99 545 274 675 463 43 62 97 173 110
227 10 40 18 50 54 69 22 11 43 24 46 28 3 3 73 51 155 105 83 54 154 102 158
106 4 4 -323 7 -727 7 l-735 0 -58 -32z"/>
</g>
</svg>
